<svg width="90" height="90" viewBox="0 0 90 90" fill="none" xmlns="http://www.w3.org/2000/svg">
<rect width="90" height="90" rx="25" fill="#C65F5F"/>
<g clip-path="url(#clip0_38_25)">
<path d="M47.3703 24.6308C46.9304 24.1908 46.2194 24.1908 45.7796 24.6308C45.3398 25.0706 45.3398 25.7817 45.7796 26.2215L50.2795 30.7215C50.4989 30.9408 50.7869 31.051 51.0749 31.051C51.3629 31.051 51.6509 30.9408 51.8702 30.7215C52.31 30.2815 52.31 29.5705 51.8702 29.1307L47.3703 24.6308Z" fill="white"/>
<path d="M40.6203 26.8807C40.1805 26.4408 39.4694 26.4408 39.0296 26.8807C38.5898 27.3206 38.5897 28.0316 39.0296 28.4714L48.0297 37.4715C48.249 37.6908 48.5371 37.8011 48.825 37.8011C49.1131 37.8011 49.401 37.6908 49.6204 37.4715C50.0602 37.0315 50.0602 36.3205 49.6204 35.8807L40.6203 26.8807Z" fill="white"/>
<path d="M60.0156 54.3443L65.0173 59.346C65.2367 59.5666 65.5247 59.6756 65.8127 59.6756C66.0995 59.6756 66.3876 59.5664 66.608 59.346C67.0468 58.9073 67.0468 58.1951 66.608 57.7553L61.3396 52.4869C64.0925 48.2557 65.7001 43.2146 65.7001 37.8011C65.7001 22.9139 53.5872 10.8011 38.7001 10.8011C23.8129 10.8011 11.7002 22.9141 11.7002 37.8013C11.7002 52.6884 23.813 64.8013 38.7002 64.8013C47.3571 64.8013 55.0712 60.7006 60.0156 54.3443ZM38.7002 62.5512C25.0528 62.5512 13.9502 51.4486 13.9502 37.8013C13.9502 24.1539 25.0528 13.0512 38.7002 13.0512C52.3476 13.0512 63.4501 24.1537 63.4501 37.8011C63.4501 51.4485 52.3476 62.5512 38.7002 62.5512Z" fill="white"/>
<path d="M38.7002 15.3011C26.2937 15.3011 16.2002 25.3946 16.2002 37.8012C16.2002 50.2077 26.2937 60.3011 38.7002 60.3011C51.1068 60.3011 61.2003 50.2076 61.2003 37.801C61.2003 25.3945 51.1068 15.3011 38.7002 15.3011ZM38.7002 58.0512C27.5347 58.0512 18.4502 48.9668 18.4502 37.8012C18.4502 26.6356 27.5347 17.5512 38.7002 17.5512C49.8658 17.5512 58.9502 26.6356 58.9502 37.8012C58.9502 48.9668 49.8658 58.0512 38.7002 58.0512Z" fill="white"/>
<path d="M77.5521 68.6993L69.668 60.8164C69.4576 60.605 69.1719 60.4868 68.8727 60.4868H68.8716C68.5735 60.4868 68.2867 60.6062 68.0751 60.8187L64.9026 64.0081C64.4638 64.449 64.4661 65.16 64.9071 65.5988C65.348 66.0375 66.0602 66.0363 66.4978 65.5943L68.8749 63.2048L75.9612 70.29C76.598 70.9279 76.9501 71.775 76.9501 72.6773C76.9501 73.5774 76.598 74.4256 75.9612 75.0624C74.6462 76.3774 72.5063 76.3797 71.189 75.0636L57.8578 61.7323C57.419 61.2935 56.7069 61.2935 56.2671 61.7323C55.8283 62.1722 55.8283 62.8843 56.2671 63.3242L69.5983 76.6543C70.694 77.7512 72.134 78.2991 73.5741 78.2991C75.0141 78.2991 76.4563 77.7501 77.5521 76.6543C78.614 75.591 79.2002 74.1791 79.2002 72.6772C79.2002 71.1743 78.614 69.7612 77.5521 68.6993Z" fill="white"/>
</g>
<defs>
<clipPath id="clip0_38_25">
<rect x="11.7002" y="10.8" width="67.5" height="67.5" rx="25" fill="white"/>
</clipPath>
</defs>
</svg>
